<svg xmlns="http://www.w3.org/2000/svg" viewBox="0.845 0 178.23 32.768">
  <path d="M27.32 12.462h4.62a1.25 1.25 0 0 1 1.244 1.243v5.24a1.25 1.25 0 0 1-1.244 1.243h-4.62c-.563 0-1.42-.266-1.777-.65.355-.947.563-2.013.563-3.138 0-1.155-.207-2.25-.622-3.197.355-.444 1.244-.74 1.836-.74zm-.592 12.462h5.183a1.25 1.25 0 0 1 1.244 1.243v5.27a1.25 1.25 0 0 1-1.244 1.243h-5.183a1.25 1.25 0 0 1-1.244-1.243v-5.27c.03-.68.563-1.243 1.244-1.243zm0-24.924h5.183a1.25 1.25 0 0 1 1.244 1.243v5.27a1.25 1.25 0 0 1-1.244 1.243h-5.183a1.25 1.25 0 0 1-1.244-1.243v-5.27C25.514.562 26.047 0 26.728 0zM2.09 25.013h6.426v6.512a1.25 1.25 0 0 1-1.244 1.243H2.09a1.25 1.25 0 0 1-1.244-1.243v-5.3c.03-.68.563-1.214 1.244-1.214zm18.006-.414c.444.326.74 1.54.74 2.13v4.736a1.25 1.25 0 0 1-1.244 1.243H14.38a1.25 1.25 0 0 1-1.244-1.243V26.73c0-.385.118-1.42.326-1.687h3.465c1.155 0 2.192-.148 3.17-.444zM14.408 0h5.212a1.25 1.25 0 0 1 1.244 1.243V5.98c0 .65-.355 2.042-.86 2.338-1.037-.326-2.192-.503-3.406-.503h-3.02c-.207-.296-.355-1.48-.355-1.865V1.214C13.194.562 13.727 0 14.408 0zm.385 12.432h2.22c2.132 0 3.672 1.6 3.672 3.937 0 2.31-1.48 3.907-3.524 3.907h-2.37c-.385-.03-.71-.355-.71-.77v-6.305a.75.75 0 0 1 .711-.77zm-12.705.03h6.426v7.726H2.09a1.25 1.25 0 0 1-1.244-1.243v-5.24c.03-.68.563-1.243 1.244-1.243zM2.09 0H7.27a1.25 1.25 0 0 1 1.244 1.243v6.512H2.09A1.25 1.25 0 0 1 .845 6.512v-5.27C.874.562 1.407 0 2.09 0z

M153.62 26.954V6.04c-.045-.407-.317-.724-.634-.724h-2.4c-.317 0-.6.317-.634.724v20.913c0 .453.272.815.634.815h2.4c.317 0 .634-.362.634-.815zM121.376 17.8l.045 4.662c0 .226 0 .407-.227.498l-1.04.453c-1.314.543-2.5.905-3.986.905-4.574 0-8.197-3.486-8.197-7.967 0-4.436 3.578-7.967 8.197-7.967 2.537 0 4.167.77 6.07 2.218.362.272.86.18 1.132-.18l1.132-1.584c.272-.362.182-.86-.18-1.132-2.5-1.8-4.9-2.716-8.106-2.716-6.794 0-12.047 4.9-12.047 11.317s5.163 11.407 11.82 11.407c3.26 0 5.66-1.086 8.424-2.67.317-.18.317-.453.317-.634v-6.564c0-.1-.1-.362-.408-.362h-2.5c-.362 0-.452.272-.452.317zm-28.26 5.885c-1.947-5.523-4.982-12.13-6.884-17.7-.1-.272-.18-.543-.543-.543h-2.763c-.272 0-.634.272-.543.543L90.58 27.27c.136.272.453.453.815.453h3.442c.362 0 .68-.136.815-.453l8.197-21.275c.1-.272-.227-.543-.544-.543h-2.762c-.362 0-.453.226-.544.543-1.947 5.568-4.936 12.177-6.884 17.7zM50.5 27.77c6.793 0 11.73-4.753 11.73-11.226 0-6.518-4.9-11.226-11.64-11.226h-7.1c-1.178 0-2.13.95-2.13 2.128V25.69c0 1.177.95 2.128 2.13 2.128l7.02-.045zm.045-19.057c4.438 0 7.88 3.26 7.88 7.876 0 4.572-3.35 7.786-7.7 7.786H45.88a.86.86 0 0 1-.861-.86V9.526a.86.86 0 0 1 .861-.86h4.665v.045zm116.8 19.057c6.793 0 11.73-4.753 11.73-11.226 0-6.518-4.9-11.226-11.64-11.226h-7.1c-1.178 0-2.13.95-2.13 2.128V25.69c0 1.177.95 2.128 2.13 2.128l7.02-.045zm0-19.057c4.438 0 7.88 3.26 7.88 7.876 0 4.572-3.352 7.786-7.7 7.786h-4.846a.86.86 0 0 1-.861-.86V9.526a.86.86 0 0 1 .861-.86h4.665v.045zm-23.324 18.92c.045.045.045.1.045.136s-.1.045-.317.045h-2.717a.51.51 0 0 1-.362-.136c-.1-.09-.182-.226-.317-.362l-4.7-6.8h-4.665v6.8a.45.45 0 0 1-.498.498h-1.948a.45.45 0 0 1-.498-.498v-9.2c0-.18.045-.272.136-.362s.227-.136.362-.136h9.103c.544 0 1.087-.18 1.585-.453 3.533-2.037 2.5-8.918-1.8-8.918h-8.877c-.18 0-.317-.045-.362-.136-.1-.1-.1-.226-.1-.362v-1.9c0-.317.136-.498.5-.498h8.92c.95 0 1.857.226 2.718.588 6.612 2.5 5.48 12.765-1.132 14.485l4.936 7.197zM65.038 14.868h10.78a.81.81 0 0 1 .815.815v1.72a.81.81 0 0 1-.815.815h-10.78a.81.81 0 0 1-.815-.815v-1.72a.81.81 0 0 1 .815-.815zm0-9.55h14.175a.81.81 0 0 1 .815.815v1.72a.81.81 0 0 1-.815.815H65.038a.81.81 0 0 1-.815-.815V6.13a.81.81 0 0 1 .815-.815zm0 19.103h14.175a.81.81 0 0 1 .815.815v1.72a.81.81 0 0 1-.815.815H65.038a.81.81 0 0 1-.815-.815v-1.72a.81.81 0 0 1 .815-.815z" fill="#000000"/>
</svg>